<mxfile host="65bd71144e">
    <diagram id="HIP3nbAZw_EuaXWnEj3U" name="Page-1">
        <mxGraphModel dx="766" dy="613" grid="1" gridSize="10" guides="1" tooltips="1" connect="1" arrows="1" fold="1" page="1" pageScale="1" pageWidth="850" pageHeight="1100" math="0" shadow="0">
            <root>
                <mxCell id="0"/>
                <mxCell id="1" parent="0"/>
                <mxCell id="7" style="edgeStyle=orthogonalEdgeStyle;shape=connector;rounded=0;html=1;exitX=0.5;exitY=1;exitDx=0;exitDy=0;exitPerimeter=0;entryX=0.5;entryY=0;entryDx=0;entryDy=0;labelBackgroundColor=default;strokeColor=default;fontFamily=Helvetica;fontSize=11;fontColor=default;endArrow=classic;" edge="1" parent="1" source="2" target="6">
                    <mxGeometry relative="1" as="geometry"/>
                </mxCell>
                <mxCell id="2" value="Start" style="strokeWidth=2;html=1;shape=mxgraph.flowchart.terminator;whiteSpace=wrap;" parent="1" vertex="1">
                    <mxGeometry x="371" y="79" width="100" height="60" as="geometry"/>
                </mxCell>
                <mxCell id="3" value="Stop" style="strokeWidth=2;html=1;shape=mxgraph.flowchart.terminator;whiteSpace=wrap;" parent="1" vertex="1">
                    <mxGeometry x="471" y="630" width="100" height="60" as="geometry"/>
                </mxCell>
                <mxCell id="13" style="edgeStyle=orthogonalEdgeStyle;shape=connector;rounded=0;html=1;labelBackgroundColor=default;strokeColor=default;fontFamily=Helvetica;fontSize=11;fontColor=default;endArrow=classic;" edge="1" parent="1" source="5" target="3">
                    <mxGeometry relative="1" as="geometry"/>
                </mxCell>
                <mxCell id="5" value="Show number one&amp;lt;number two" style="rounded=1;whiteSpace=wrap;html=1;absoluteArcSize=1;arcSize=14;strokeWidth=2;fontFamily=Helvetica;fontSize=11;fontColor=default;" vertex="1" parent="1">
                    <mxGeometry x="370" y="540" width="100" height="60" as="geometry"/>
                </mxCell>
                <mxCell id="12" style="edgeStyle=orthogonalEdgeStyle;shape=connector;rounded=0;html=1;exitX=0.5;exitY=1;exitDx=0;exitDy=0;labelBackgroundColor=default;strokeColor=default;fontFamily=Helvetica;fontSize=11;fontColor=default;endArrow=classic;" edge="1" parent="1" source="6" target="8">
                    <mxGeometry relative="1" as="geometry"/>
                </mxCell>
                <mxCell id="6" value="Created variables for number one and two" style="shape=parallelogram;html=1;strokeWidth=2;perimeter=parallelogramPerimeter;whiteSpace=wrap;rounded=1;arcSize=12;size=0.23;fontFamily=Helvetica;fontSize=11;fontColor=default;" vertex="1" parent="1">
                    <mxGeometry x="371" y="190" width="100" height="60" as="geometry"/>
                </mxCell>
                <mxCell id="10" style="edgeStyle=orthogonalEdgeStyle;shape=connector;rounded=0;html=1;exitX=1;exitY=0.5;exitDx=0;exitDy=0;exitPerimeter=0;entryX=0;entryY=0.5;entryDx=0;entryDy=0;labelBackgroundColor=default;strokeColor=default;fontFamily=Helvetica;fontSize=11;fontColor=default;endArrow=classic;" edge="1" parent="1" source="8" target="9">
                    <mxGeometry relative="1" as="geometry"/>
                </mxCell>
                <mxCell id="11" style="edgeStyle=orthogonalEdgeStyle;shape=connector;rounded=0;html=1;exitX=0.5;exitY=1;exitDx=0;exitDy=0;exitPerimeter=0;labelBackgroundColor=default;strokeColor=default;fontFamily=Helvetica;fontSize=11;fontColor=default;endArrow=classic;entryX=0.5;entryY=0;entryDx=0;entryDy=0;" edge="1" parent="1" source="8" target="5">
                    <mxGeometry relative="1" as="geometry">
                        <mxPoint x="420" y="490" as="targetPoint"/>
                    </mxGeometry>
                </mxCell>
                <mxCell id="8" value="if number one&amp;gt;number two" style="strokeWidth=2;html=1;shape=mxgraph.flowchart.decision;whiteSpace=wrap;fontFamily=Helvetica;fontSize=11;fontColor=default;" vertex="1" parent="1">
                    <mxGeometry x="370" y="320" width="100" height="100" as="geometry"/>
                </mxCell>
                <mxCell id="14" style="edgeStyle=orthogonalEdgeStyle;shape=connector;rounded=0;html=1;labelBackgroundColor=default;strokeColor=default;fontFamily=Helvetica;fontSize=11;fontColor=default;endArrow=classic;" edge="1" parent="1" source="9" target="3">
                    <mxGeometry relative="1" as="geometry"/>
                </mxCell>
                <mxCell id="9" value="Show number one&amp;gt;number two&lt;br&gt;&amp;nbsp;" style="rounded=1;whiteSpace=wrap;html=1;absoluteArcSize=1;arcSize=14;strokeWidth=2;fontFamily=Helvetica;fontSize=11;fontColor=default;" vertex="1" parent="1">
                    <mxGeometry x="560" y="360" width="100" height="60" as="geometry"/>
                </mxCell>
                <mxCell id="17" style="edgeStyle=orthogonalEdgeStyle;shape=connector;rounded=0;html=1;exitX=0.5;exitY=1;exitDx=0;exitDy=0;exitPerimeter=0;labelBackgroundColor=default;strokeColor=default;fontFamily=Helvetica;fontSize=11;fontColor=default;endArrow=classic;" edge="1" parent="1" source="15" target="16">
                    <mxGeometry relative="1" as="geometry"/>
                </mxCell>
                <mxCell id="15" value="Start" style="strokeWidth=2;html=1;shape=mxgraph.flowchart.terminator;whiteSpace=wrap;" vertex="1" parent="1">
                    <mxGeometry x="780" y="79" width="100" height="60" as="geometry"/>
                </mxCell>
                <mxCell id="19" style="edgeStyle=orthogonalEdgeStyle;shape=connector;rounded=0;html=1;exitX=0.5;exitY=1;exitDx=0;exitDy=0;entryX=0.5;entryY=0;entryDx=0;entryDy=0;labelBackgroundColor=default;strokeColor=default;fontFamily=Helvetica;fontSize=11;fontColor=default;endArrow=classic;" edge="1" parent="1" source="16" target="18">
                    <mxGeometry relative="1" as="geometry"/>
                </mxCell>
                <mxCell id="16" value="When button A pressed" style="rounded=1;whiteSpace=wrap;html=1;absoluteArcSize=1;arcSize=14;strokeWidth=2;fontFamily=Helvetica;fontSize=11;fontColor=default;" vertex="1" parent="1">
                    <mxGeometry x="780" y="210" width="100" height="60" as="geometry"/>
                </mxCell>
                <mxCell id="21" style="edgeStyle=orthogonalEdgeStyle;shape=connector;rounded=0;html=1;exitX=0.5;exitY=1;exitDx=0;exitDy=0;labelBackgroundColor=default;strokeColor=default;fontFamily=Helvetica;fontSize=11;fontColor=default;endArrow=classic;" edge="1" parent="1" source="18" target="20">
                    <mxGeometry relative="1" as="geometry"/>
                </mxCell>
                <mxCell id="18" value="Show number one&lt;br&gt;&amp;nbsp;" style="rounded=1;whiteSpace=wrap;html=1;absoluteArcSize=1;arcSize=14;strokeWidth=2;fontFamily=Helvetica;fontSize=11;fontColor=default;" vertex="1" parent="1">
                    <mxGeometry x="780" y="320" width="100" height="60" as="geometry"/>
                </mxCell>
                <mxCell id="20" value="Stop" style="strokeWidth=2;html=1;shape=mxgraph.flowchart.terminator;whiteSpace=wrap;" vertex="1" parent="1">
                    <mxGeometry x="790" y="470" width="100" height="60" as="geometry"/>
                </mxCell>
                <mxCell id="22" style="edgeStyle=orthogonalEdgeStyle;shape=connector;rounded=0;html=1;exitX=0.5;exitY=1;exitDx=0;exitDy=0;exitPerimeter=0;labelBackgroundColor=default;strokeColor=default;fontFamily=Helvetica;fontSize=11;fontColor=default;endArrow=classic;" edge="1" source="23" target="25" parent="1">
                    <mxGeometry relative="1" as="geometry"/>
                </mxCell>
                <mxCell id="23" value="Start" style="strokeWidth=2;html=1;shape=mxgraph.flowchart.terminator;whiteSpace=wrap;" vertex="1" parent="1">
                    <mxGeometry x="910" y="79" width="100" height="60" as="geometry"/>
                </mxCell>
                <mxCell id="24" style="edgeStyle=orthogonalEdgeStyle;shape=connector;rounded=0;html=1;entryX=0.5;entryY=0;entryDx=0;entryDy=0;labelBackgroundColor=default;strokeColor=default;fontFamily=Helvetica;fontSize=11;fontColor=default;endArrow=classic;" edge="1" source="25" target="27" parent="1">
                    <mxGeometry relative="1" as="geometry"/>
                </mxCell>
                <mxCell id="25" value="When button B pressed" style="rounded=1;whiteSpace=wrap;html=1;absoluteArcSize=1;arcSize=14;strokeWidth=2;fontFamily=Helvetica;fontSize=11;fontColor=default;" vertex="1" parent="1">
                    <mxGeometry x="910" y="210" width="100" height="60" as="geometry"/>
                </mxCell>
                <mxCell id="26" style="edgeStyle=orthogonalEdgeStyle;shape=connector;rounded=0;html=1;exitX=0.5;exitY=1;exitDx=0;exitDy=0;labelBackgroundColor=default;strokeColor=default;fontFamily=Helvetica;fontSize=11;fontColor=default;endArrow=classic;" edge="1" source="27" target="28" parent="1">
                    <mxGeometry relative="1" as="geometry"/>
                </mxCell>
                <mxCell id="27" value="Show number Two&lt;br&gt;&amp;nbsp;" style="rounded=1;whiteSpace=wrap;html=1;absoluteArcSize=1;arcSize=14;strokeWidth=2;fontFamily=Helvetica;fontSize=11;fontColor=default;" vertex="1" parent="1">
                    <mxGeometry x="910" y="320" width="100" height="60" as="geometry"/>
                </mxCell>
                <mxCell id="28" value="Stop" style="strokeWidth=2;html=1;shape=mxgraph.flowchart.terminator;whiteSpace=wrap;" vertex="1" parent="1">
                    <mxGeometry x="920" y="470" width="100" height="60" as="geometry"/>
                </mxCell>
            </root>
        </mxGraphModel>
    </diagram>
</mxfile>